<svg xmlns="http://www.w3.org/2000/svg" width="100" height="100" viewBox="0 0 100 100"><g fill="none" fill-rule="evenodd"><rect width="100" height="100" fill="#00F" rx="24"/><path fill="#FFF" d="M23.8247563,53.6752437 L15.054261,51.9629396 C13.9701594,51.7512855 13.262901,50.7008679 13.4745551,49.6167663 C13.630547,48.8177694 14.2552641,48.1930522 15.054261,48.0370604 L23.8247563,46.3247563 C35.204995,44.10294 44.10294,35.204995 46.3247563,23.8247563 L48.0370604,15.054261 C48.2487145,13.9701594 49.2991321,13.262901 50.3832337,13.4745551 C51.1822306,13.630547 51.8069478,14.2552641 51.9629396,15.054261 L53.6752437,23.8247563 C55.89706,35.204995 64.795005,44.10294 76.1752437,46.3247563 L84.945739,48.0370604 C86.0298406,48.2487145 86.737099,49.2991321 86.5254449,50.3832337 C86.369453,51.1822306 85.7447359,51.8069478 84.945739,51.9629396 L76.1752437,53.6752437 C64.795005,55.89706 55.89706,64.795005 53.6752437,76.1752437 L51.9629396,84.945739 C51.7512855,86.0298406 50.7008679,86.737099 49.6167663,86.5254449 C48.8177694,86.369453 48.1930522,85.7447359 48.0370604,84.945739 L46.3247563,76.1752437 C44.10294,64.795005 35.204995,55.89706 23.8247563,53.6752437 Z"/></g></svg>