<svg xmlns="http://www.w3.org/2000/svg" width="100" height="70" viewBox="0 0 100 70"><path fill="#FF1493" fill-rule="evenodd" d="M99.9990247,15.867 L100,65 C100,67.7614237 97.7614237,70 95,70 L5,70 C2.23857625,70 -8.8817842e-16,67.7614237 0,65 L-0.000975291255,15.867 L44.1898204,47.4140431 C47.5789478,49.8334636 52.1014815,49.8939491 55.5472792,47.5954997 L55.8101796,47.4140431 L99.9990247,15.867 Z M95,0 C97.7614237,-8.8817842e-16 100,2.23857625 100,5 L99.9990247,6.51 L52.3331669,40.7607786 C50.999066,41.7194001 49.2220496,41.7610633 47.8494506,40.8857761 L47.6648643,40.7607351 L-0.000975291255,6.508 L0,5 C0,2.23857625 2.23857625,-1.77635684e-15 5,0 L95,0 Z"/></svg>