<svg xmlns="http://www.w3.org/2000/svg" width="2100" height="850" viewBox="0 0 2100 850"><defs><filter id="a" width="171.7%" height="171.7%" x="-35.9%" y="-35.9%" filterUnits="objectBoundingBox"><feGaussianBlur in="SourceGraphic" stdDeviation="50"/></filter><filter id="b" width="153.8%" height="153.8%" x="-26.9%" y="-26.9%" filterUnits="objectBoundingBox"><feGaussianBlur in="SourceGraphic" stdDeviation="50"/></filter><filter id="c" width="147.8%" height="147.8%" x="-23.9%" y="-23.9%" filterUnits="objectBoundingBox"><feGaussianBlur in="SourceGraphic" stdDeviation="50"/></filter><filter id="d" width="195.6%" height="195.6%" x="-47.8%" y="-47.8%" filterUnits="objectBoundingBox"><feGaussianBlur in="SourceGraphic" stdDeviation="50"/></filter><filter id="e" width="178.2%" height="178.2%" x="-39.1%" y="-39.1%" filterUnits="objectBoundingBox"><feGaussianBlur in="SourceGraphic" stdDeviation="50"/></filter><filter id="f" width="161.5%" height="161.5%" x="-30.7%" y="-30.7%" filterUnits="objectBoundingBox"><feGaussianBlur in="SourceGraphic" stdDeviation="50"/></filter><filter id="g" width="222.9%" height="222.9%" x="-61.5%" y="-61.5%" filterUnits="objectBoundingBox"><feGaussianBlur in="SourceGraphic" stdDeviation="50"/></filter><filter id="h" width="161.5%" height="161.5%" x="-30.7%" y="-30.7%" filterUnits="objectBoundingBox"><feGaussianBlur in="SourceGraphic" stdDeviation="50"/></filter><filter id="i" width="143%" height="143%" x="-21.5%" y="-21.5%" filterUnits="objectBoundingBox"><feGaussianBlur in="SourceGraphic" stdDeviation="50"/></filter></defs><g fill="none" transform="translate(-105.708 -511)"><circle cx="209.167" cy="540.347" r="209.167" fill="tomato" fill-opacity=".7" filter="url(#a)"/><circle cx="601.354" cy="435.764" r="278.889" fill="#87CEEB" fill-opacity=".7" filter="url(#b)"/><circle cx="1472.882" cy="313.75" r="313.75" fill="#32CD32" fill-opacity=".7" filter="url(#c)"/><circle cx="914.142" cy="632.028" r="156.875" fill="orange" fill-opacity=".5" filter="url(#d)"/><circle cx="1298.576" cy="627.5" r="191.736" fill="#7B68EE" fill-opacity=".4" filter="url(#e)"/><circle cx="2082.951" cy="540.347" r="244.028" fill="indigo" fill-opacity=".4" filter="url(#f)"/><circle cx="1647.188" cy="749.514" r="122.014" fill="#F08080" fill-opacity=".7" filter="url(#g)"/><circle cx="688.507" cy="1010.972" r="244.028" fill="#96FF32" fill-opacity=".2" filter="url(#h)"/><circle cx="1124.271" cy="836.667" r="348.611" fill="#7B68EE" fill-opacity=".2" filter="url(#i)"/></g></svg>